<?xml version="1.0" encoding="UTF-8"?><svg xmlns="http://www.w3.org/2000/svg" width="512" height="512" xmlns:xlink="http://www.w3.org/1999/xlink" viewBox="0 0 512 512"><defs><style>.cls-1{fill:#fff;}.cls-2{fill:url(#_名称未設定グラデーション_6);}</style><linearGradient id="_名称未設定グラデーション_6" x1="75.48" y1="74.98" x2="437.52" y2="437.02" gradientUnits="userSpaceOnUse"><stop offset="0" stop-color="#f299fa"/><stop offset="1" stop-color="#ada9ef"/></linearGradient></defs><circle class="cls-2" cx="256.5" cy="256" r="256"/><path class="cls-1" d="m332.75,256.09l49.75-51.03-126.3-129.53-125.69,128.9,49.79,51.06-49.79,51.06,126.27,129.49,125.72-128.93-49.75-51.03Zm-154.44-51.65l78.1-80.1,78.72,80.73-26.07,26.73-52.83-54.18-52.04,53.37-25.89-26.55Zm107.06,51.65l-28.35,29.07-28.93-29.67,28.35-29.07,28.93,29.67Zm-28.38,131.16l-78.68-80.69,25.89-26.55,52.62,53.96,52.25-53.58,26.07,26.73-78.14,80.13Z"/></svg>