<?xml version="1.0" encoding="UTF-8"?><svg xmlns="http://www.w3.org/2000/svg" width="1859" height="387" xmlns:xlink="http://www.w3.org/1999/xlink" viewBox="0 0 1859 387"><defs><style>.cls-1{fill:#fff;}.cls-2{fill:url(#_名称未設定グラデーション_6);}</style><linearGradient id="_名称未設定グラデーション_6" x1="56.67" y1="56.67" x2="330.33" y2="330.33" gradientUnits="userSpaceOnUse"><stop offset="0" stop-color="#f299fa"/><stop offset="1" stop-color="#ada9ef"/></linearGradient></defs><circle class="cls-2" cx="193.5" cy="193.5" r="193.5"/><path class="cls-1" d="m251.13,193.57l37.61-38.57-95.46-97.9-95,97.43,37.63,38.59-37.63,38.59,95.44,97.88,95.03-97.45-37.61-38.57Zm-116.73-39.04l59.04-60.54,59.5,61.02-19.7,20.21-39.93-40.95-39.33,40.34-19.57-20.07Zm80.93,39.04l-21.43,21.98-21.87-22.43,21.43-21.98,21.87,22.43Zm-21.45,99.14l-59.47-60.99,19.57-20.07,39.77,40.79,39.49-40.5,19.7,20.21-59.06,60.57Z"/><path d="m523.23,265.75c-8.3,0-15.98-1.09-23.03-3.28-7.06-2.18-13.46-5.49-19.21-9.93-5.75-4.44-10.88-9.93-15.39-16.48l16.16-18.56c7.13,10.19,13.97,17.25,20.52,21.18,6.55,3.93,14.34,5.9,23.36,5.9,5.53,0,10.55-.87,15.06-2.62,4.51-1.75,8.08-4.15,10.7-7.21s3.93-6.55,3.93-10.48c0-2.62-.44-5.09-1.31-7.42-.87-2.33-2.22-4.44-4.04-6.33-1.82-1.89-4.15-3.64-6.99-5.24-2.84-1.6-6.15-3.02-9.93-4.26-3.79-1.24-8.15-2.29-13.1-3.17-7.86-1.6-14.7-3.71-20.52-6.33-5.82-2.62-10.7-5.9-14.63-9.83-3.93-3.93-6.84-8.41-8.73-13.43-1.89-5.02-2.84-10.66-2.84-16.92s1.34-11.79,4.04-17.03c2.69-5.24,6.4-9.79,11.14-13.65,4.73-3.85,10.3-6.84,16.7-8.95,6.4-2.11,13.32-3.17,20.74-3.17,7.86,0,15.07,1.02,21.62,3.06,6.55,2.04,12.37,5.06,17.47,9.06,5.09,4.01,9.31,8.92,12.66,14.74l-16.59,16.38c-2.91-4.8-6.19-8.84-9.83-12.12-3.64-3.27-7.64-5.75-12.01-7.42-4.37-1.67-9.03-2.51-13.97-2.51-5.68,0-10.63.87-14.85,2.62-4.22,1.75-7.53,4.19-9.93,7.31-2.4,3.13-3.6,6.81-3.6,11.03,0,3.06.58,5.86,1.75,8.41,1.16,2.55,2.95,4.8,5.35,6.77,2.4,1.96,5.64,3.71,9.72,5.24,4.07,1.53,8.95,2.88,14.63,4.04,8,1.75,15.14,3.97,21.4,6.66,6.26,2.7,11.57,5.86,15.94,9.5,4.37,3.64,7.68,7.72,9.93,12.23,2.26,4.51,3.38,9.39,3.38,14.63,0,9.75-2.26,18.2-6.77,25.33-4.51,7.13-10.92,12.63-19.21,16.48s-18.2,5.79-29.69,5.79Z"/><path d="m612.31,263.57V110.73h62.23c8.3,0,15.83,2.07,22.6,6.22,6.77,4.15,12.19,9.79,16.27,16.92,4.07,7.13,6.11,15.06,6.11,23.8s-2.04,16.67-6.11,23.8c-4.08,7.13-9.5,12.85-16.27,17.14-6.77,4.29-14.3,6.44-22.6,6.44h-38.65v58.51h-23.58Zm23.58-81.22h38.21c3.93,0,7.5-1.13,10.7-3.38,3.2-2.25,5.79-5.24,7.75-8.95,1.96-3.71,2.95-7.82,2.95-12.34s-.98-8.59-2.95-12.23c-1.96-3.64-4.55-6.55-7.75-8.73-3.2-2.18-6.77-3.27-10.7-3.27h-38.21v48.91Z"/><path d="m750.73,263.57V110.73h63.75c9.75,0,17.98,1.46,24.67,4.37,6.69,2.91,11.75,7.24,15.17,12.99,3.42,5.75,5.13,12.77,5.13,21.07s-2.29,15.36-6.88,21.18c-4.58,5.82-10.95,9.82-19.1,12.01v-4.37c6.84,1.46,12.81,4.04,17.9,7.75,5.09,3.71,9.06,8.33,11.9,13.86,2.84,5.53,4.26,11.87,4.26,19s-1.13,13.72-3.38,19.32c-2.26,5.61-5.6,10.3-10.04,14.08-4.44,3.79-9.79,6.66-16.05,8.62-6.26,1.97-13.39,2.95-21.4,2.95h-65.94Zm23.58-89.52h38.86c4.37,0,8.26-.87,11.68-2.62,3.42-1.75,6.11-4.15,8.08-7.21,1.97-3.06,2.95-6.55,2.95-10.48,0-6.55-2.18-11.57-6.55-15.07-4.37-3.49-10.63-5.24-18.78-5.24h-36.24v40.61Zm0,66.81h41.05c5.97,0,11.03-.87,15.17-2.62s7.35-4.33,9.61-7.75c2.26-3.42,3.38-7.53,3.38-12.34,0-4.51-1.2-8.37-3.6-11.57-2.4-3.2-5.79-5.64-10.15-7.31-4.37-1.67-9.54-2.51-15.5-2.51h-39.96v44.1Z"/><path d="m958.81,264.88c-11.79,0-22.35-2.58-31.66-7.75-9.32-5.17-16.63-12.3-21.94-21.4-5.32-9.1-7.97-19.39-7.97-30.89v-94.32h23.58v92.36c0,7.42,1.75,14.08,5.24,19.98,3.49,5.9,8.11,10.59,13.86,14.08,5.75,3.49,12.04,5.24,18.89,5.24,7.28,0,13.86-1.75,19.76-5.24,5.89-3.49,10.59-8.19,14.08-14.08,3.49-5.9,5.24-12.55,5.24-19.98v-92.36h22.49v94.32c0,11.5-2.66,21.8-7.97,30.89-5.31,9.1-12.63,16.23-21.94,21.4-9.32,5.17-19.87,7.75-31.66,7.75Z"/><path d="m1055.31,311.6v-162.66h22.71v26.2l-3.49-1.97c.87-4.37,3.35-8.55,7.42-12.55,4.07-4,9.06-7.28,14.96-9.83,5.89-2.54,11.97-3.82,18.23-3.82,10.33,0,19.5,2.55,27.51,7.64,8,5.1,14.33,12.08,19,20.96,4.66,8.88,6.99,19.07,6.99,30.57s-2.29,21.51-6.88,30.46c-4.58,8.95-10.88,16.01-18.89,21.18-8.01,5.17-17.03,7.75-27.07,7.75-6.7,0-13.17-1.35-19.43-4.04-6.26-2.69-11.57-6.15-15.94-10.37-4.37-4.22-7.06-8.59-8.08-13.1l5.68-3.06v76.64h-22.71Zm56.77-66.81c6.69,0,12.66-1.67,17.9-5.02,5.24-3.35,9.39-7.93,12.45-13.75,3.06-5.82,4.58-12.45,4.58-19.87s-1.49-14.01-4.48-19.76c-2.98-5.75-7.1-10.3-12.34-13.65-5.24-3.35-11.28-5.02-18.12-5.02s-12.88,1.64-18.12,4.91c-5.24,3.27-9.39,7.83-12.45,13.65-3.06,5.82-4.58,12.44-4.58,19.87s1.53,14.05,4.58,19.87c3.06,5.82,7.21,10.41,12.45,13.75,5.24,3.35,11.28,5.02,18.12,5.02Z"/><path d="m1193.52,263.57V102h22.49v161.57h-22.49Z"/><path d="m1299.41,265.75c-11.21,0-21.22-2.58-30.02-7.75-8.81-5.17-15.76-12.23-20.85-21.18-5.1-8.95-7.64-19.18-7.64-30.68s2.54-21.72,7.64-30.68c5.09-8.95,12.04-16.01,20.85-21.18,8.8-5.17,18.81-7.75,30.02-7.75s20.99,2.59,29.8,7.75c8.8,5.17,15.75,12.23,20.85,21.18,5.09,8.95,7.64,19.18,7.64,30.68s-2.55,21.72-7.64,30.68c-5.1,8.95-12.05,16.01-20.85,21.18-8.81,5.17-18.74,7.75-29.8,7.75Zm0-20.52c6.84,0,12.95-1.71,18.34-5.13,5.38-3.42,9.61-8.08,12.66-13.97,3.06-5.9,4.51-12.55,4.37-19.98.14-7.57-1.31-14.3-4.37-20.2-3.06-5.9-7.28-10.51-12.66-13.86-5.39-3.35-11.5-5.02-18.34-5.02s-12.99,1.71-18.45,5.13c-5.46,3.42-9.72,8.08-12.77,13.97s-4.51,12.55-4.37,19.98c-.15,7.42,1.31,14.08,4.37,19.98s7.31,10.56,12.77,13.97c5.46,3.42,11.61,5.13,18.45,5.13Z"/><path d="m1426.26,265.75c-9.46,0-18.09-2.62-25.87-7.86-7.79-5.24-14.01-12.37-18.67-21.4-4.66-9.02-6.99-19.21-6.99-30.57s2.36-21.72,7.1-30.68c4.73-8.95,11.14-15.97,19.21-21.07,8.08-5.09,17.14-7.64,27.18-7.64,5.97,0,11.43.87,16.38,2.62,4.95,1.75,9.28,4.19,12.99,7.31,3.71,3.13,6.77,6.73,9.17,10.81,2.4,4.08,3.89,8.44,4.48,13.1l-5.02-1.75v-29.69h22.71v114.63h-22.71v-27.29l5.24-1.53c-.87,3.93-2.66,7.75-5.35,11.46-2.7,3.71-6.11,7.02-10.26,9.93-4.15,2.91-8.73,5.24-13.76,6.99-5.02,1.75-10.3,2.62-15.83,2.62Zm5.9-20.74c6.84,0,12.88-1.67,18.12-5.02,5.24-3.35,9.35-7.97,12.34-13.86,2.98-5.9,4.48-12.63,4.48-20.2s-1.49-14.05-4.48-19.87c-2.99-5.82-7.1-10.41-12.34-13.76-5.24-3.35-11.28-5.02-18.12-5.02s-12.63,1.68-17.79,5.02c-5.17,3.35-9.25,7.94-12.23,13.76-2.99,5.82-4.48,12.44-4.48,19.87s1.49,14.3,4.48,20.2c2.98,5.9,7.06,10.52,12.23,13.86,5.17,3.35,11.1,5.02,17.79,5.02Z"/><path d="m1568.18,265.75c-10.48,0-19.83-2.58-28.06-7.75-8.22-5.17-14.74-12.23-19.54-21.18-4.8-8.95-7.21-19.18-7.21-30.68s2.36-21.72,7.1-30.68c4.73-8.95,11.17-16.01,19.32-21.18,8.15-5.17,17.39-7.75,27.73-7.75,5.68,0,11.17.91,16.48,2.73,5.31,1.82,10.08,4.3,14.3,7.42,4.22,3.13,7.53,6.55,9.93,10.26,2.4,3.71,3.6,7.46,3.6,11.24l-6.55.44v-76.64h22.49v161.57h-22.49v-27.29h4.37c0,3.49-1.17,6.95-3.49,10.37-2.33,3.42-5.42,6.59-9.28,9.5-3.86,2.91-8.3,5.24-13.32,6.99-5.02,1.75-10.15,2.62-15.39,2.62Zm3.06-19.43c6.84,0,12.88-1.75,18.12-5.24,5.24-3.49,9.35-8.26,12.34-14.3,2.98-6.04,4.48-12.92,4.48-20.63s-1.49-14.59-4.48-20.63c-2.99-6.04-7.1-10.81-12.34-14.3-5.24-3.49-11.28-5.24-18.12-5.24s-12.88,1.75-18.12,5.24c-5.24,3.49-9.35,8.26-12.34,14.3-2.99,6.04-4.48,12.92-4.48,20.63s1.49,14.59,4.48,20.63c2.98,6.04,7.1,10.81,12.34,14.3,5.24,3.49,11.28,5.24,18.12,5.24Z"/><path d="m1712.28,265.75c-11.79,0-22.24-2.51-31.33-7.53-9.1-5.02-16.23-11.9-21.4-20.63-5.17-8.73-7.75-18.78-7.75-30.13,0-9.02,1.45-17.25,4.37-24.67,2.91-7.42,6.95-13.86,12.12-19.32,5.17-5.46,11.35-9.68,18.56-12.66,7.21-2.98,15.03-4.48,23.47-4.48,7.42,0,14.33,1.42,20.74,4.26,6.4,2.84,11.97,6.73,16.7,11.68,4.73,4.95,8.37,10.81,10.92,17.58,2.54,6.77,3.75,14.16,3.6,22.16l-.22,9.61h-93.67l-5.02-17.9h79.26l-3.28,3.71v-5.24c-.44-4.8-2.04-9.1-4.8-12.88-2.77-3.78-6.26-6.77-10.48-8.95-4.22-2.18-8.81-3.28-13.75-3.28-7.86,0-14.49,1.49-19.87,4.48-5.39,2.98-9.46,7.35-12.23,13.1-2.77,5.75-4.15,12.85-4.15,21.29,0,8.01,1.67,14.96,5.02,20.85,3.35,5.9,8.08,10.45,14.19,13.65,6.11,3.2,13.17,4.8,21.18,4.8,5.68,0,10.95-.94,15.83-2.84,4.88-1.89,10.15-5.31,15.83-10.26l11.35,15.94c-3.49,3.49-7.75,6.55-12.77,9.17-5.02,2.62-10.34,4.69-15.94,6.22-5.61,1.53-11.1,2.29-16.48,2.29Z"/><path d="m1786.73,263.57v-114.63h22.71v36.03l-2.18-8.73c1.6-5.53,4.33-10.55,8.19-15.07,3.85-4.51,8.3-8.08,13.32-10.7,5.02-2.62,10.22-3.93,15.61-3.93,2.47,0,4.84.22,7.1.65,2.25.44,4.04.95,5.35,1.53l-5.9,24.45c-1.75-.73-3.68-1.34-5.79-1.86-2.11-.51-4.19-.76-6.22-.76-3.93,0-7.68.76-11.24,2.29-3.57,1.53-6.7,3.64-9.39,6.33-2.69,2.7-4.84,5.82-6.44,9.39-1.6,3.57-2.4,7.46-2.4,11.68v63.32h-22.71Z"/></svg>